<?xml version="1.0" encoding="UTF-8" standalone="no"?>
<svg
   version="1.1"
   id="Layer_1"
   x="0px"
   y="0px"
   width="100%"
   viewBox="0 0 512 512"
   enable-background="new 0 0 512 512"
   xml:space="preserve"
   sodipodi:docname="sitzplandigital_svg.svg"
   inkscape:version="1.4 (e7c3feb100, 2024-10-09)"
   xmlns:inkscape="http://www.inkscape.org/namespaces/inkscape"
   xmlns:sodipodi="http://sodipodi.sourceforge.net/DTD/sodipodi-0.dtd"
   xmlns="http://www.w3.org/2000/svg"
   xmlns:svg="http://www.w3.org/2000/svg"><defs
   id="defs6" /><sodipodi:namedview
   id="namedview6"
   pagecolor="#ffffff"
   bordercolor="#000000"
   borderopacity="0.25"
   inkscape:showpageshadow="2"
   inkscape:pageopacity="0.0"
   inkscape:pagecheckerboard="0"
   inkscape:deskcolor="#d1d1d1"
   inkscape:zoom="1.4231235"
   inkscape:cx="217.12803"
   inkscape:cy="223.80348"
   inkscape:window-width="1920"
   inkscape:window-height="1171"
   inkscape:window-x="0"
   inkscape:window-y="472"
   inkscape:window-maximized="1"
   inkscape:current-layer="Layer_1" />
<path
   fill="#000000"
   opacity="1"
   stroke="none"
   d="M 1.036411,513 H 512.83868"
   id="path1"
   sodipodi:nodetypes="cc" />
<path
   fill="#02b96b"
   opacity="1"
   stroke="none"
   d="m 307.45367,306.48363 c 3.72165,1.76572 7.49695,2.77185 10.52313,4.8624 8.27741,5.7182 7.87363,14.42904 5.19931,22.31262 -4.71686,13.90482 -10.77771,27.35055 -16.15561,41.03574 -2.25515,5.73861 -4.14346,11.62027 -6.30722,17.39617 -2.54699,6.7988 -5.30075,13.52082 -7.79754,20.33741 -2.01499,5.50116 -3.63907,11.14648 -5.68808,16.63397 -4.28058,11.46378 -8.77808,22.84647 -13.08899,34.29916 -3.22165,8.55884 -6.27747,17.18003 -9.43381,25.76364 -1.37808,3.74756 -8.28972,5.44642 -13.88121,3.71399 -8.70367,-2.69668 -9.50804,-9.48684 -6.77892,-15.7091 2.95229,-6.73105 4.58765,-14.02628 7.16327,-20.93912 4.01928,-10.78751 8.39063,-21.44324 12.53339,-32.18546 5.94189,-15.40753 11.89008,-30.81347 17.69015,-46.27465 5.14194,-13.70673 10.08835,-27.48682 15.11362,-41.23722 0.89261,-2.44241 1.74841,-4.89819 2.78598,-7.81018 -13.89938,-5.3475 -28.0697,-10.8269 -42.26137,-16.25027 -10.95964,-4.18817 -21.92387,-8.36615 -32.92813,-12.43491 -7.86021,-2.90625 -15.73077,-5.80987 -23.7109,-8.35693 -4.88677,-1.55969 -10.86231,0.84198 -13.12655,5.35745 -3.17991,6.34152 -6.2135,12.81354 -8.59727,19.48431 -3.95953,11.08039 -7.33426,22.36915 -10.98975,33.5589 -3.3352,10.20942 -6.57139,20.45441 -10.11027,30.5933 -5.56998,15.95794 -10.84024,32.05587 -17.3423,47.63333 -2.17731,5.21631 -3.62457,12.09707 -10.96328,14.1719 -7.39764,2.09146 -12.42185,-1.21624 -12.70935,-8.69281 4.40986,-27.53282 16.24899,-55.27867 25.09392,-82.12524 11.89089,-34.13028 17.93283,-52.73881 31.89696,-109.47022 14.32345,-58.19076 24.88732,-109.96253 -9.71829,-207.145487 -2.1496,-6.036714 1.82812,-12.096084 8.67964,-14.119572 4.85388,-1.433509 12.11528,3.435135 13.61938,8.925961 12.67158,42.865528 24.00146,66.183917 23.3763,127.098818 -0.12381,12.06371 -0.88765,24.13736 -1.98182,36.15021 -0.81151,8.90953 -2.44272,17.75984 -4.03071,26.57858 -1.41127,7.83739 -3.22583,15.60376 -4.94714,23.38274 -2.96025,10.70186 -5.91999,17.85488 6.65886,23.95944 9.03203,3.8577 18.47041,6.75125 27.61517,10.36054 17.04142,6.72595 33.96665,13.74624 51.00507,20.47998 6.01269,2.37628 12.22119,4.25509 18.32648,6.40039 1.68551,0.59228 3.32122,1.32635 5.26788,2.26022 z"
   id="path2"
   sodipodi:nodetypes="csssssssssssssscsssssssssssssssssssssssc"
   style="fill:#65a30d;fill-opacity:1" />

<path
   fill="#02b96b"
   opacity="1"
   stroke="none"
   d="m 296.96524,70.701668 c 7.40067,37.225572 13.94522,67.790712 6.93887,124.050682 -0.85446,6.86118 -2.7066,13.58391 -3.77981,20.42068 -1.26581,8.06369 3.79223,13.64156 12.56589,16.86496 9.97094,3.66332 19.78247,7.75834 29.71084,11.54082 5.43628,2.07106 11.00785,3.78565 16.45306,5.83463 11.38343,4.28343 22.72092,8.68898 34.08292,13.02952 4.07749,1.55771 8.31796,2.77033 12.22846,4.66736 9.39025,4.5553 12.39663,10.96918 9.4689,21.42685 -1.77136,6.32724 -4.70081,12.32993 -7.10468,18.4805 -1.79989,4.60525 -3.69537,9.17645 -5.36493,13.82864 -3.51007,9.78049 -6.75811,19.65683 -10.37667,29.39612 -3.97113,10.68823 -8.27448,21.25263 -12.36573,31.89682 -3.83062,9.96616 -7.44766,20.01618 -11.4024,29.93213 -2.30206,5.77203 -4.8132,11.49689 -7.73306,16.97504 -2.39927,4.50134 -6.9401,4.84854 -11.17054,3.3605 -4.18002,-1.47021 -8.13369,-3.23205 -8.26254,-9.22522 -0.20236,-9.4173 4.34851,-17.12817 7.55179,-25.38592 2.65304,-6.83939 4.99182,-13.80027 7.50598,-20.69413 3.50287,-9.60501 6.96573,-19.22561 10.58127,-28.78827 4.05899,-10.73553 8.32214,-21.39382 12.39481,-32.12426 2.74188,-7.22412 9.88625,-23.58834 9.09633,-27.10169 -0.86809,-3.86108 -24.28103,-12.28329 -36.82708,-17.10675 -12.44046,-4.78287 -25.02749,-9.18588 -37.45068,-14.01184 -10.41852,-4.04719 -20.767,-8.29584 -31.00742,-12.7733 -7.30432,-3.19368 -10.22076,-8.87051 -7.40594,-19.24646 8.75435,-32.27015 10.44592,-66.01347 8.32737,-99.35979 -2.44405,-28.495699 -10.02503,-55.522899 -18.9225,-82.330364 -1.25238,-3.874965 -2.5093,-7.756305 -3.53494,-11.694435 -0.96692,-3.712831 2.28659,-10.420854 7.82758,-11.500044 7.77142,-1.513605 10.69357,-0.06435 14.2258,7.368161 3.85521,8.112307 8.29579,22.064227 13.74905,42.26906 z"
   id="path4"
   sodipodi:nodetypes="ssssssssssssssssssssssssssssssss"
   style="fill:#65a30d;fill-opacity:1" /><path
   fill="#02b96b"
   opacity="1"
   stroke="none"
   d="m 257.40734,90.873038 c 7.40067,37.225572 7.99864,66.732162 0.99229,122.992132 -0.85446,6.86118 -2.7066,13.58391 -3.77981,20.42068 -1.26581,8.06369 3.79223,13.64156 12.56589,16.86496 9.97094,3.66332 19.78247,7.75834 29.71084,11.54082 5.43628,2.07106 11.00785,3.78565 16.45306,5.83463 11.38343,4.28343 22.72092,8.68898 34.08292,13.02952 4.07749,1.55771 8.31796,2.77033 12.22846,4.66736 9.39025,4.5553 12.39663,10.96918 9.4689,21.42685 -1.77136,6.32724 -4.70081,12.32993 -7.10468,18.4805 -1.79989,4.60525 -3.69537,9.17645 -5.36493,13.82864 -3.51007,9.78049 -6.75811,19.65683 -10.37667,29.39612 -3.97113,10.68823 -8.27448,21.25263 -12.36573,31.89682 -3.83062,9.96616 -14.63036,37.17486 -18.5851,47.09081 -2.30206,5.77203 -4.8132,11.49689 -7.73306,16.97504 -2.39927,4.50134 -6.9401,4.84854 -11.17054,3.3605 -4.18002,-1.47021 -8.13369,-3.23205 -8.26254,-9.22522 -0.20236,-9.4173 4.34851,-17.12817 7.55179,-25.38592 2.65304,-6.83939 12.17452,-30.95895 14.68868,-37.85281 3.50287,-9.60501 6.96573,-19.22561 10.58127,-28.78827 4.05899,-10.73553 8.32214,-21.39382 12.39481,-32.12426 2.74188,-7.22412 9.88625,-23.58834 9.09633,-27.10169 -0.86809,-3.86108 -24.28103,-12.28329 -36.82708,-17.10675 -12.44046,-4.78287 -25.02749,-9.18588 -37.45068,-14.01184 -10.41852,-4.04719 -20.767,-8.29584 -31.00742,-12.7733 -7.30432,-3.19368 -10.22076,-8.87051 -7.40594,-19.24646 8.75435,-32.27015 13.42311,-67.22252 11.67134,-100.59012 -2.92341,-55.684808 -16.47795,-74.830457 -28.50591,-113.340789 -0.96692,-3.712831 2.28659,-10.420854 7.82758,-11.500044 7.77142,-1.513605 10.69357,-0.06435 14.2258,7.368161 3.85521,8.112307 16.94687,43.6691 22.40013,63.87393 z"
   id="path4-6"
   sodipodi:nodetypes="sssssssssssssssssssssssssssssss"
   style="fill:#65a30d;fill-opacity:1" />
<path
   fill="#02b96b"
   opacity="1"
   stroke="none"
   d="m 218.15205,310.63257 c 7.33425,4.4855 5.42401,11.32837 4.19866,17.05154 -1.49306,6.97357 -4.78868,13.55332 -7.19783,20.34131 -1.79306,5.05203 -3.43204,10.15918 -5.11174,15.25098 -3.39113,10.27966 -6.5441,20.64496 -10.22597,30.81906 -2.19083,6.05389 -4.57539,12.21341 -8.02715,17.58356 -3.15953,4.91546 -9.4885,5.62356 -14.3509,3.07275 -4.83188,-2.53491 -6.90075,-7.38713 -5.03351,-13.50165 8.79324,-28.79462 17.38978,-58.84826 30.3642,-84.71536 5.16098,-8.82205 5.61288,-8.86301 15.38424,-5.90219 z"
   id="path5"
   sodipodi:nodetypes="cssssscssc"
   style="fill:#65a30d;fill-opacity:1" />
<path
   fill="#02b96b"
   opacity="1"
   stroke="none"
   d="m 247.97641,387.96548 c -6.53392,3.82788 -12.11816,3.68284 -16.65447,-1.33557 -3.63995,-4.02673 -2.85086,-8.79327 -0.90306,-13.82751 3.91951,-10.13028 6.78569,-20.67221 10.8024,-30.75919 2.21031,-5.55066 3.32813,-12.02719 8.90204,-15.72986 3.45642,-2.29608 9.92917,-1.3406 13.3967,1.7594 3.68433,3.29383 4.29562,8.67994 2.25214,13.15552 -6.94446,15.20934 -12.48256,43.21601 -17.79575,46.73721 z"
   id="path6"
   sodipodi:nodetypes="cssssssc"
   style="fill:#65a30d;fill-opacity:1" />
</svg>
